<?xml version="1.0" standalone="no"?>
<!DOCTYPE svg PUBLIC "-//W3C//DTD SVG 20010904//EN"
 "http://www.w3.org/TR/2001/REC-SVG-20010904/DTD/svg10.dtd">
<svg version="1.0" xmlns="http://www.w3.org/2000/svg"
 width="184.000000pt" height="156.000000pt" viewBox="0 0 184.000000 156.000000"
 preserveAspectRatio="xMidYMid meet">

<g transform="translate(0.000000,156.000000) scale(0.100000,-0.100000)"
fill="currentColor" stroke="none">
<path d="M620 1318 c0 -27 31 -140 45 -167 9 -19 36 -39 77 -59 75 -35 146
-95 185 -157 27 -45 29 -46 68 -39 22 3 43 8 47 10 11 7 -21 103 -55 167 -61
116 -147 191 -267 233 -78 27 -100 30 -100 12z"/>
<path d="M510 1064 c33 -86 124 -175 203 -199 56 -17 154 -20 176 -6 11 7 8
17 -17 49 -71 89 -140 131 -257 157 -33 7 -72 16 -88 20 -27 7 -27 7 -17 -21z"/>
<path d="M960 858 c-30 -15 -53 -37 -67 -63 -44 -78 -26 -134 80 -253 80 -89
100 -129 105 -212 2 -51 -1 -73 -17 -104 -11 -22 -19 -42 -17 -44 3 -2 27 17
55 43 93 87 117 223 58 329 l-26 46 39 0 c55 0 86 17 106 58 16 35 16 37 -6
80 -65 121 -202 174 -310 120z"/>
<path d="M582 354 c-50 -35 -12 -124 54 -124 42 0 45 6 28 52 -8 22 -14 51
-14 64 0 29 -33 33 -68 8z"/>
</g>
</svg>
